# xmcd
#
# Track frame offsets:
#	150
#	23962
#	36702
#	51207
#	65135
#	78830
#	96042
#	118127
#	133255
#	147120
#	157822
#	172807
#
# Disc length: 2544 seconds
#
# Revision: 0
# Processed by: cddbd v1.5.1PL0 Copyright (c) Steve Scherf et al.
# Submitted via: dBpowerAMP V4.0
#
DISCID=a409ee0c
DTITLE=Pirates of the Mississippi - Pirates of the Mississippi
DYEAR=1900
DGENRE=Country
TTITLE0=Jolly Roger/Pirates of the Mississippi
TTITLE1=Dream You
TTITLE2=Rollin' Home
TTITLE3=Speak Of The Devil
TTITLE4=Honky Tonk Blues
TTITLE5=Uncommon Man
TTITLE6=A Street Man Named Desire
TTITLE7=Til I'm Holding You Again
TTITLE8=Too Much
TTITLE9=Pop From The Top
TTITLE10=Fighting For You
TTITLE11=Feed Jake
EXTD=
EXTT0=
EXTT1=
EXTT2=
EXTT3=
EXTT4=
EXTT5=
EXTT6=
EXTT7=
EXTT8=
EXTT9=
EXTT10=
EXTT11=
PLAYORDER=
